<?xml version="1.0" standalone="no"?>
<!DOCTYPE svg PUBLIC "-//W3C//DTD SVG 20010904//EN"
 "http://www.w3.org/TR/2001/REC-SVG-20010904/DTD/svg10.dtd">
<svg version="1.0" xmlns="http://www.w3.org/2000/svg"
 width="225.000000pt" height="225.000000pt" viewBox="0 0 225.000000 225.000000"
 preserveAspectRatio="xMidYMid meet">
<metadata>
Created by potrace 1.10, written by Peter Selinger 2001-2011
</metadata>
<g transform="translate(0.000000,225.000000) scale(0.100000,-0.100000)"
fill="#000000" stroke="none">
<path d="M1521 1839 c-109 -22 -197 -60 -277 -120 l-52 -38 -21 23 c-68 72
-218 116 -395 116 -142 0 -206 -14 -323 -70 -62 -29 -97 -39 -142 -42 l-60 -3
-12 -70 c-28 -170 -113 -602 -143 -730 -48 -196 -53 -247 -31 -295 14 -31 15
-43 6 -54 -9 -11 -10 -20 -2 -35 6 -11 11 -31 11 -46 l0 -25 443 0 c243 1 450
-2 460 -6 9 -3 17 -10 17 -15 0 -14 81 -31 118 -24 42 8 82 32 82 50 0 23 32
26 175 21 321 -13 771 -17 797 -7 35 13 40 58 14 126 -17 45 -19 99 -27 584
-4 295 -12 538 -17 543 -5 5 -20 4 -36 -3 -21 -10 -49 -10 -128 -1 -101 12
-114 17 -263 94 -58 30 -131 40 -194 27z m144 -35 c25 -8 71 -30 103 -49 78
-45 150 -64 260 -68 l94 -4 5 -526 5 -527 -38 0 c-73 1 -244 29 -380 65 -208
53 -288 48 -485 -34 -150 -62 -134 -69 -133 62 2 135 41 453 105 860 l13 78
73 44 c167 102 282 132 378 99z m-695 -38 c58 -15 219 -106 214 -120 -6 -20
-82 -459 -99 -576 -9 -63 -19 -190 -22 -281 l-6 -167 -31 18 c-51 30 -182 54
-286 54 -74 0 -131 -9 -255 -38 -171 -40 -276 -49 -337 -28 -52 19 -59 46 -37
157 10 50 52 266 95 480 42 215 77 391 78 392 1 2 42 14 90 28 48 14 114 39
147 55 32 17 76 35 97 40 47 12 289 2 352 -14z m730 -1100 c109 -32 237 -54
362 -63 93 -6 100 -8 109 -30 5 -13 9 -27 9 -30 0 -3 -233 -4 -518 -2 l-517 4
-23 -23 c-26 -26 -68 -29 -95 -4 -22 19 -1 19 -581 14 -191 -2 -351 0 -354 3
-3 3 0 11 6 17 7 7 12 20 12 29 0 15 5 16 38 7 68 -19 215 -3 357 38 112 33
143 38 225 37 100 0 269 -37 316 -68 27 -17 66 -11 169 26 188 68 238 79 320
75 44 -3 118 -16 165 -30z m477 -161 c-3 -6 -176 -10 -491 -11 l-487 -1 -27
-26 c-41 -39 -71 -47 -116 -32 -22 8 -43 20 -47 27 -7 12 -295 17 -892 18 -10
0 -16 4 -12 9 3 5 96 10 208 11 111 1 305 3 430 5 207 3 232 2 270 -16 60 -27
102 -25 129 7 l23 25 507 -3 c333 -2 507 -6 505 -13z"/>
<path d="M1466 1679 c-117 -17 -214 -54 -194 -74 3 -3 40 4 84 14 152 38 239
45 339 27 50 -8 131 -27 180 -41 84 -25 185 -46 185 -39 0 15 -241 87 -365
110 -87 15 -139 16 -229 3z"/>
<path d="M1435 1585 c-94 -17 -153 -35 -167 -52 -19 -23 -4 -24 73 -4 151 38
244 46 350 27 53 -9 141 -30 195 -46 55 -17 113 -29 129 -28 23 3 4 12 -85 41
-227 73 -351 89 -495 62z"/>
<path d="M1387 1480 c-94 -20 -146 -45 -129 -62 7 -7 16 -6 29 0 31 17 229 52
291 52 65 0 196 -26 326 -64 93 -27 158 -35 123 -15 -26 15 -234 75 -322 94
-97 20 -209 18 -318 -5z"/>
<path d="M1385 1393 c-89 -19 -138 -39 -132 -55 2 -7 11 -11 18 -9 62 19 246
51 295 51 78 0 197 -22 320 -60 99 -31 134 -36 134 -21 0 10 -210 73 -318 96
-91 19 -225 18 -317 -2z"/>
<path d="M1385 1299 c-109 -26 -145 -40 -145 -55 0 -12 6 -15 23 -11 288 65
371 64 607 -8 95 -29 140 -37 140 -25 0 8 -97 41 -245 82 -81 23 -315 33 -380
17z"/>
<path d="M1425 1209 c-92 -13 -195 -47 -195 -64 0 -19 -3 -19 88 4 159 40 229
46 338 26 54 -10 144 -30 199 -46 101 -29 157 -37 139 -20 -14 14 -247 80
-342 96 -92 16 -136 17 -227 4z"/>
<path d="M1405 1106 c-105 -17 -185 -44 -185 -62 0 -17 -1 -17 69 1 31 8 100
21 154 30 89 14 107 14 190 0 51 -8 139 -28 197 -44 144 -40 160 -43 160 -32
0 12 -125 53 -264 86 -127 31 -221 37 -321 21z"/>
<path d="M1375 1006 c-100 -19 -156 -38 -162 -53 -9 -23 1 -24 81 -3 42 10
114 25 160 31 99 14 201 0 379 -51 137 -40 202 -37 80 3 -236 77 -402 99 -538
73z"/>
<path d="M1335 913 c-84 -18 -135 -38 -135 -54 0 -12 0 -12 158 20 169 35 250
29 473 -34 129 -37 149 -40 149 -27 0 10 -164 62 -290 92 -102 24 -252 26
-355 3z"/>
<path d="M1439 839 c-126 -10 -239 -44 -239 -70 0 -7 10 -9 23 -6 241 54 280
58 392 41 50 -7 131 -25 180 -40 104 -31 176 -46 183 -39 16 15 -285 102 -393
113 -38 4 -104 4 -146 1z"/>
<path d="M710 1694 c-14 -2 -56 -9 -95 -15 -93 -14 -268 -58 -280 -70 -16 -16
39 -10 145 15 55 14 146 30 200 37 90 10 109 9 199 -10 55 -12 126 -30 158
-41 57 -18 79 -18 67 2 -25 41 -298 98 -394 82z"/>
<path d="M637 1594 c-122 -19 -306 -64 -313 -76 -9 -14 69 -4 171 22 41 11
121 25 178 31 113 13 192 3 346 -46 41 -13 77 -22 79 -20 24 23 -77 66 -216
91 -94 16 -131 16 -245 -2z"/>
<path d="M585 1499 c-138 -24 -265 -58 -265 -71 0 -11 60 -3 135 18 69 19 239
44 300 44 41 -1 124 -19 315 -71 8 -2 15 2 15 11 0 19 -75 47 -190 71 -111 23
-169 23 -310 -2z"/>
<path d="M610 1425 c-133 -20 -308 -62 -325 -77 -17 -15 45 -8 153 16 136 32
275 49 327 41 43 -7 248 -59 278 -70 11 -5 17 -2 17 8 0 30 -164 80 -300 91
-36 2 -103 -1 -150 -9z"/>
<path d="M585 1335 c-120 -20 -305 -66 -305 -77 0 -13 35 -9 148 16 148 34
267 49 330 41 29 -4 101 -20 160 -36 133 -37 126 -36 132 -24 13 26 -173 82
-299 89 -43 3 -114 -1 -166 -9z"/>
<path d="M555 1225 c-116 -20 -295 -66 -295 -76 0 -11 60 -3 163 22 43 11 124
25 181 31 114 13 201 1 351 -46 46 -15 77 -20 81 -14 4 5 2 13 -2 18 -18 15
-123 49 -204 64 -97 19 -166 19 -275 1z"/>
<path d="M545 1144 c-178 -38 -305 -69 -305 -75 0 -15 44 -10 152 16 130 31
270 45 340 34 45 -7 177 -41 256 -64 16 -6 22 -3 22 8 0 18 -84 52 -180 73
-60 13 -238 17 -285 8z"/>
<path d="M500 1044 c-103 -18 -252 -55 -270 -66 -24 -14 83 -2 190 22 52 11
140 23 195 26 90 5 112 3 220 -26 172 -46 168 -45 163 -29 -6 19 -97 54 -190
73 -91 19 -204 19 -308 0z"/>
<path d="M510 945 c-120 -23 -267 -57 -281 -66 -8 -4 -11 -11 -7 -14 6 -7 53
1 203 35 50 12 133 23 185 26 85 5 108 2 215 -26 165 -44 165 -44 165 -31 0
15 -47 37 -131 61 -97 27 -251 34 -349 15z"/>
<path d="M590 874 c-14 -2 -52 -9 -85 -14 -103 -18 -285 -64 -285 -72 0 -13
36 -9 148 17 189 43 278 50 384 31 51 -10 126 -28 166 -42 85 -28 82 -28 82
-10 0 43 -302 109 -410 90z"/>
<path d="M430 764 c-63 -13 -139 -32 -170 -41 -51 -16 -53 -18 -24 -21 18 -2
69 6 115 17 207 48 293 55 412 30 53 -10 124 -28 159 -39 73 -23 100 -11 42
18 -128 65 -334 79 -534 36z"/>
</g>
</svg>
